<svg xmlns="http://www.w3.org/2000/svg" xmlns:xlink="http://www.w3.org/1999/xlink" viewBox="0,0,256,256" width="50px" height="50px"><g fill="#b1eda7" fill-rule="nonzero" stroke="none" stroke-width="1" stroke-linecap="butt" stroke-linejoin="miter" stroke-miterlimit="10" stroke-dasharray="" stroke-dashoffset="0" font-family="none" font-weight="none" font-size="none" text-anchor="none" style="mix-blend-mode: normal"><path d="M64,256c-35.34622,0 -64,-28.65378 -64,-64v-128c0,-35.34622 28.65378,-64 64,-64h128c35.34622,0 64,28.65378 64,64v128c0,35.34622 -28.65378,64 -64,64z" id="shape"></path></g><g fill="#e61ad0" fill-rule="nonzero" stroke="none" stroke-width="1" stroke-linecap="butt" stroke-linejoin="miter" stroke-miterlimit="10" stroke-dasharray="" stroke-dashoffset="0" font-family="none" font-weight="none" font-size="none" text-anchor="none" style="mix-blend-mode: normal"><g transform="scale(5.12,5.12)"><path d="M46.707,12.293l-8,-8c-0.391,-0.391 -1.023,-0.391 -1.414,0l-12.293,12.293l-12.293,-12.293c-0.391,-0.391 -1.023,-0.391 -1.414,0l-8,8c-0.188,0.187 -0.293,0.442 -0.293,0.707v23c0,0.265 0.105,0.52 0.293,0.707l10,10c0.286,0.287 0.718,0.372 1.09,0.217c0.374,-0.155 0.617,-0.52 0.617,-0.924v-20.586l9.293,9.293c0.195,0.195 0.451,0.293 0.707,0.293c0.256,0 0.512,-0.098 0.707,-0.293l9.293,-9.293v20.586c0,0.404 0.243,0.769 0.617,0.924c0.124,0.051 0.254,0.076 0.383,0.076c0.26,0 0.516,-0.102 0.707,-0.293l10,-10c0.188,-0.187 0.293,-0.442 0.293,-0.707v-23c0,-0.265 -0.105,-0.52 -0.293,-0.707z"></path></g></g></svg>